<svg xmlns="http://www.w3.org/2000/svg" width="200" height="200" viewBox="0 0 24 24"><path fill="currentColor" d="M4 20q-.825 0-1.413-.588T2 18V6q0-.825.588-1.413T4 4h16q.825 0 1.413.588T22 6v12q0 .825-.588 1.413T20 20H4Zm0-2h16V6H4v12Zm5.6-3.1q.275.2.538.338t.562.262l.15.725q.075.35.338.563T11.8 17h.4q.35 0 .613-.225t.337-.575l.15-.7q.3-.125.563-.263t.537-.337l.725.225q.325.1.638-.025t.487-.4l.2-.35q.175-.3.125-.65t-.325-.575l-.55-.475q.05-.325.05-.65t-.05-.65l.55-.475q.275-.225.325-.563t-.125-.637l-.225-.375q-.175-.275-.475-.4t-.625-.025L14.4 9.1q-.275-.2-.538-.338T13.3 8.5l-.15-.725q-.075-.35-.338-.563T12.2 7h-.4q-.35 0-.613.225t-.337.575l-.15.7q-.3.125-.562.263T9.6 9.1l-.725-.225q-.325-.1-.637.025t-.488.4l-.2.35q-.175.3-.125.65t.325.575l.55.475q-.05.325-.05.65t.05.65l-.55.475q-.275.225-.325.563t.125.637l.225.375q.175.275.475.4t.625.025L9.6 14.9ZM12 14q-.825 0-1.412-.588T10 12q0-.825.588-1.413T12 10q.825 0 1.413.588T14 12q0 .825-.588 1.413T12 14Zm-8 4V6v12Z"/></svg>