<svg xmlns="http://www.w3.org/2000/svg" width="200" height="200" viewBox="0 0 24 24"><path fill="currentColor" d="M6.5 16q-.425 0-.713-.288T5.5 15q0-.425.288-.713T6.5 14h2q.425 0 .713.288T9.5 15q0 .425-.288.713T8.5 16h-2Zm0-4q-.425 0-.713-.288T5.5 11q0-.425.288-.713T6.5 10h11q.425 0 .713.288T18.5 11q0 .425-.288.713T17.5 12h-11Zm0-4q-.425 0-.713-.288T5.5 7q0-.425.288-.713T6.5 6h11q.425 0 .713.288T18.5 7q0 .425-.288.713T17.5 8h-11Zm8.95 9.15l4.925-4.925q.3-.3.713-.288t.712.313q.275.3.288.7t-.288.7l-5.65 5.65q-.3.3-.7.3t-.7-.3l-2.85-2.85q-.275-.275-.288-.688t.288-.712q.275-.275.688-.275t.712.275l2.15 2.1ZM2.5 8q-.425 0-.713-.288T1.5 7q0-.425.288-.713T2.5 6q.425 0 .713.288T3.5 7q0 .425-.288.713T2.5 8Zm0 4q-.425 0-.713-.288T1.5 11q0-.425.288-.713T2.5 10q.425 0 .713.288T3.5 11q0 .425-.288.713T2.5 12Zm0 4q-.425 0-.713-.288T1.5 15q0-.425.288-.713T2.5 14q.425 0 .713.288T3.5 15q0 .425-.288.713T2.5 16Z"/></svg>