<?xml version="1.0" encoding="iso-8859-1"?>
<!-- Uploaded to: SVG Repo, www.svgrepo.com, Generator: SVG Repo Mixer Tools -->
<svg height="800px" width="800px" version="1.1" id="Capa_1" xmlns="http://www.w3.org/2000/svg" xmlns:xlink="http://www.w3.org/1999/xlink" 
	 viewBox="0 0 351.347 351.347" xml:space="preserve">
<g>
	<g>
		<path style="fill:#010002;" d="M23.867,113.857H327.48V63.305H23.867V113.857z M35.801,75.245h279.745v26.684H35.801V75.245z"/>
		<path style="fill:#010002;" d="M0,39.444v86.848v11.438v75.893v10.955v87.325h351.347v-87.331v-10.955v-75.893v-11.438V39.444H0z
			 M339.413,299.963H11.934v-74.413h327.48V299.963z M339.413,138.226v74.413H11.934v-74.413H339.413z M11.934,51.378h327.48v74.419
			H11.934V51.378z"/>
		<path style="fill:#010002;" d="M327.48,150.159H23.867v50.545H327.48V150.159z M315.546,188.771H35.801v-26.678h279.745V188.771z"
			/>
		<path style="fill:#010002;" d="M327.48,237.484H23.867v50.545H327.48V237.484z M315.546,276.096H35.801v-26.678h279.745V276.096z"
			/>
	</g>
</g>
</svg>